<svg xmlns="http://www.w3.org/2000/svg" xmlns:xlink="http://www.w3.org/1999/xlink" aria-hidden="true" role="img" class="iconify iconify--logos" width="35.93" height="32" preserveAspectRatio="xMidYMid meet" viewBox="0 0 256 228"><path fill="#00D8FF" d="M210.483 73.824a171.49 171.49 0 0 0-8.24-2.597c.465-1.447.893-2.872 1.273-4.267c6.238-22.281 4.67-40.329-4.548-49.087c-9.18-8.72-26.502-9.588-47.536-2.348a170.974 170.974 0 0 0-6.376 2.314a145.375 145.375 0 0 0-4.267-1.254C119.274 1.07 99.832.193 84.198 6.238C68.522 12.3 58.07 24.05 54.47 38.483a145.52 145.52 0 0 0-3.798 1.13a171.233 171.233 0 0 0-6.12-2.253C23.526 29.884 6.216 30.73-2.97 39.45c-9.217 8.787-10.785 26.835-4.547 49.116c.38 1.395.808 2.82 1.273 4.267a171.49 171.49 0 0 0-8.24 2.597C-24.23 102.893-27 117.866-24.4 132.56c2.6 14.696 11.06 27.978 23.955 37.693a171.004 171.004 0 0 0 6.376 4.508a144.447 144.447 0 0 0 2.132 4.743a145.375 145.375 0 0 0 4.268 1.254c-1.447 5.18-2.52 10.566-3.136 16.098c-6.238 22.28-4.67 40.328 4.548 49.086c9.18 8.72 26.502 9.588 47.536 2.348a170.974 170.974 0 0 0 6.376-2.314a145.375 145.375 0 0 0 4.267 1.254c15.604 6.044 35.046 6.921 50.722.86c15.636-6.044 26.088-17.795 29.688-32.227a145.52 145.52 0 0 0 3.798-1.13a171.233 171.233 0 0 0 6.12 2.253c21.034 7.24 38.344 6.394 47.53-2.326c9.217-8.787 10.785-26.835 4.547-49.116c-.38-1.395-.808-2.82-1.273-4.267a171.49 171.49 0 0 0 8.24-2.597c15.604-6.044 26.088-17.794 29.688-32.227c3.62-14.47 1.01-29.443-8.884-39.158Zm-6.376 65.344a145.52 145.52 0 0 1-3.798 16.098a171.233 171.233 0 0 1-6.12 15.968a145.375 145.375 0 0 1-4.268-1.254a171.004 171.004 0 0 1-15.968 6.12a144.447 144.447 0 0 1-16.098 3.136a145.375 145.375 0 0 1-1.254 4.268a170.974 170.974 0 0 1-2.314 6.376c7.24 21.034 6.394 38.344-2.326 47.53c-8.72 9.18-26.768 10.748-49.05 4.51a171.49 171.49 0 0 1-4.267-1.273a171.49 171.49 0 0 1-2.597 8.24c-6.044 15.604-17.794 26.088-32.227 29.688a145.52 145.52 0 0 1-16.098-3.798a171.233 171.233 0 0 1-15.968-6.12a145.375 145.375 0 0 1-1.254-4.268a171.004 171.004 0 0 1-6.12-15.968c-21.034-7.24-38.344-6.394-47.53 2.326c-8.72 9.18-10.288 27.227-4.05 49.509a171.49 171.49 0 0 1-4.267 1.273c-15.604 6.044-35.046 6.921-50.722.86c-15.636-6.044-26.088-17.795-29.688-32.227a145.52 145.52 0 0 1 3.798-16.098a171.233 171.233 0 0 1 6.12-15.968a145.375 145.375 0 0 1 4.268 1.254a171.004 171.004 0 0 1 15.968-6.12a144.447 144.447 0 0 1 16.098-3.136a145.375 145.375 0 0 1 1.254-4.268a170.974 170.974 0 0 1 2.314-6.376c-7.24-21.034-6.394-38.344 2.326-47.53c8.72-9.18 26.768-10.748 49.05-4.51a171.49 171.49 0 0 1 4.267 1.273a171.49 171.49 0 0 1 2.597-8.24c6.044-15.604 17.794-26.088 32.227-29.688a145.52 145.52 0 0 1 16.098 3.798a171.233 171.233 0 0 1 15.968 6.12a145.375 145.375 0 0 1 1.254 4.268a171.004 171.004 0 0 1 6.12 15.968c21.034 7.24 38.344 6.394 47.53-2.326c8.72-9.18 10.288-27.227 4.05-49.509a171.49 171.49 0 0 1 4.267-1.273c15.604-6.044 35.046-6.921 50.722-.86c15.636 6.044 26.088 17.795 29.688 32.227a145.52 145.52 0 0 1-3.798 16.098a171.233 171.233 0 0 1-6.12 15.968a145.375 145.375 0 0 1-4.268-1.254a171.004 171.004 0 0 1-15.968-6.12a144.447 144.447 0 0 1-16.098-3.136a145.375 145.375 0 0 1-1.254-4.268a170.974 170.974 0 0 1-2.314-6.376c-7.24-21.034-6.394-38.344 2.326-47.53c8.72-9.18 26.768-10.748 49.05-4.51a171.49 171.49 0 0 1 4.267 1.273a171.49 171.49 0 0 1 2.597-8.24c6.044-15.604 17.794-26.088 32.227-29.688a145.52 145.52 0 0 1 16.098 3.798a171.233 171.233 0 0 1 15.968 6.12a145.375 145.375 0 0 1 1.254 4.268a171.004 171.004 0 0 1 6.12 15.968c21.034 7.24 38.344 6.394 47.53-2.326c8.72-9.18 10.288-27.227 4.05-49.509Zm-47.53 2.326a171.49 171.49 0 0 0-2.597-8.24c-6.044-15.604-17.794-26.088-32.227-29.688a145.52 145.52 0 0 0-16.098 3.798a171.233 171.233 0 0 0-15.968 6.12a145.375 145.375 0 0 0-1.254-4.268a171.004 171.004 0 0 0-6.12-15.968c-21.034-7.24-38.344-6.394-47.53 2.326c-8.72 9.18-10.288 27.227-4.05 49.509a171.49 171.49 0 0 0-4.267 1.273a171.49 171.49 0 0 0-2.597 8.24c-6.044 15.604-17.794 26.088-32.227 29.688a145.52 145.52 0 0 0-16.098-3.798a171.233 171.233 0 0 0-15.968-6.12a145.375 145.375 0 0 0-1.254 4.268a171.004 171.004 0 0 0-6.12 15.968c-21.034 7.24-38.344 6.394-47.53-2.326c-8.72-9.18-10.288-27.227-4.05-49.509a171.49 171.49 0 0 0-4.267-1.273c-15.604-6.044-35.046-6.921-50.722-.86c-15.636 6.044-26.088 17.795-29.688 32.227a145.52 145.52 0 0 0 3.798 16.098a171.233 171.233 0 0 0 6.12 15.968a145.375 145.375 0 0 0 4.268-1.254a171.004 171.004 0 0 0 15.968-6.12a144.447 144.447 0 0 0 16.098-3.136a145.375 145.375 0 0 0 1.254-4.268a170.974 170.974 0 0 0 2.314-6.376c7.24 21.034 6.394 38.344-2.326 47.53c-8.72 9.18-26.768 10.748-49.05 4.51a171.49 171.49 0 0 0-4.267-1.273a171.49 171.49 0 0 0-2.597 8.24c-6.044 15.604-17.794 26.088-32.227 29.688a145.52 145.52 0 0 0 16.098-3.798a171.233 171.233 0 0 0 15.968-6.12a145.375 145.375 0 0 0 1.254 4.268a171.004 171.004 0 0 0 6.12 15.968c21.034 7.24 38.344 6.394 47.53-2.326c8.72-9.18 10.288-27.227 4.05-49.509a171.49 171.49 0 0 0 4.267-1.273c15.604-6.044 35.046-6.921 50.722-.86c15.636 6.044 26.088 17.795 29.688 32.227a145.52 145.52 0 0 0-3.798 16.098a171.233 171.233 0 0 0-6.12 15.968a145.375 145.375 0 0 0-4.268 1.254a171.004 171.004 0 0 0-15.968 6.12a144.447 144.447 0 0 0-16.098 3.136a145.375 145.375 0 0 0-1.254 4.268a170.974 170.974 0 0 0-2.314 6.376c-7.24-21.034-6.394-38.344 2.326-47.53c8.72-9.18 26.768-10.748 49.05-4.51a171.49 171.49 0 0 0 4.267 1.273a171.49 171.49 0 0 0 2.597-8.24c6.044-15.604 17.794-26.088 32.227-29.688a145.52 145.52 0 0 0-16.098 3.798a171.233 171.233 0 0 0-15.968 6.12a145.375 145.375 0 0 0-1.254-4.268a171.004 171.004 0 0 0-6.12-15.968Z"></path></svg>

